<svg xmlns="http://www.w3.org/2000/svg" width="1000" height="580" viewBox="0 0 1000 580">
  <!--
    城市地圖 — 尋藥記  (viewBox 1000×580)
    起點:   bottom-left  → characterStartX:40,  characterStartY:462
    Goal 1: 房東 centre  → goal1Zone {x:390,y:225,w:200,h:185}
    Goal 2: 藥局 top-right→ goal2Zone {x:800,y:10,w:190,h:185}
  -->

  <!-- ── Background ── -->
  <rect width="1000" height="580" fill="#7ab648"/>

  <!-- ── Land blocks (same grid as previous version) ── -->
  <!-- Top row -->
  <rect x="10"  y="10"  width="185" height="185" rx="4" fill="#8ec85a"/>
  <rect x="215" y="10"  width="175" height="185" rx="4" fill="#8ec85a"/>
  <rect x="400" y="10"  width="190" height="185" rx="4" fill="#8ec85a"/>
  <rect x="600" y="10"  width="190" height="185" rx="4" fill="#8ec85a"/>
  <rect x="800" y="10"  width="190" height="185" rx="4" fill="#8ec85a"/>
  <!-- Middle row -->
  <rect x="10"  y="225" width="185" height="185" rx="4" fill="#8ec85a"/>
  <rect x="215" y="225" width="175" height="185" rx="4" fill="#8ec85a"/>
  <rect x="400" y="225" width="380" height="185" rx="4" fill="#8ec85a"/>
  <rect x="790" y="225" width="200" height="185" rx="4" fill="#8ec85a"/>
  <!-- Bottom row -->
  <rect x="10"  y="440" width="185" height="130" rx="4" fill="#8ec85a"/>
  <rect x="215" y="440" width="175" height="130" rx="4" fill="#8ec85a"/>
  <rect x="400" y="440" width="190" height="130" rx="4" fill="#8ec85a"/>
  <rect x="600" y="440" width="190" height="130" rx="4" fill="#8ec85a"/>
  <rect x="800" y="440" width="190" height="130" rx="4" fill="#8ec85a"/>

  <!-- ── Roads ── -->
  <rect x="0" y="195" width="1000" height="30"  fill="#bdbdbd"/>
  <rect x="0" y="410" width="1000" height="30"  fill="#bdbdbd"/>
  <rect x="195" y="0" width="20"   height="580" fill="#bdbdbd"/>
  <rect x="390" y="0" width="10"   height="580" fill="#bdbdbd"/>
  <rect x="590" y="0" width="10"   height="580" fill="#bdbdbd"/>
  <rect x="790" y="0" width="10"   height="580" fill="#bdbdbd"/>

  <!-- Road dashes -->
  <line x1="0"   y1="210" x2="1000" y2="210" stroke="white" stroke-width="2" stroke-dasharray="24,16" opacity="0.55"/>
  <line x1="0"   y1="425" x2="1000" y2="425" stroke="white" stroke-width="2" stroke-dasharray="24,16" opacity="0.55"/>
  <line x1="205" y1="0"   x2="205"  y2="580" stroke="white" stroke-width="2" stroke-dasharray="24,16" opacity="0.55"/>
  <line x1="395" y1="0"   x2="395"  y2="580" stroke="white" stroke-width="2" stroke-dasharray="24,16" opacity="0.55"/>
  <line x1="595" y1="0"   x2="595"  y2="580" stroke="white" stroke-width="2" stroke-dasharray="24,16" opacity="0.55"/>
  <line x1="795" y1="0"   x2="795"  y2="580" stroke="white" stroke-width="2" stroke-dasharray="24,16" opacity="0.55"/>

  <!-- Road arrows -->
  <text x="100" y="208" font-size="16" fill="white" opacity="0.6" text-anchor="middle">→</text>
  <text x="500" y="208" font-size="16" fill="white" opacity="0.6" text-anchor="middle">→</text>
  <text x="900" y="216" font-size="16" fill="white" opacity="0.6" text-anchor="middle">←</text>
  <text x="100" y="423" font-size="16" fill="white" opacity="0.6" text-anchor="middle">→</text>
  <text x="500" y="423" font-size="16" fill="white" opacity="0.6" text-anchor="middle">←</text>
  <text x="900" y="416" font-size="16" fill="white" opacity="0.6" text-anchor="middle">←</text>
  <text x="205" y="100" font-size="13" fill="white" opacity="0.6" text-anchor="middle">↑</text>
  <text x="205" y="310" font-size="13" fill="white" opacity="0.6" text-anchor="middle">↓</text>
  <text x="795" y="100" font-size="13" fill="white" opacity="0.6" text-anchor="middle">↓</text>
  <text x="795" y="310" font-size="13" fill="white" opacity="0.6" text-anchor="middle">↑</text>
  <text x="795" y="510" font-size="13" fill="white" opacity="0.6" text-anchor="middle">↓</text>

  <!-- ── Traffic lights ── -->
  <g transform="translate(190,177)"><rect width="10" height="22" rx="2" fill="#222"/>
    <circle cx="5" cy="4"  r="3" fill="#ff3333"/>
    <circle cx="5" cy="11" r="3" fill="#ffaa00"/>
    <circle cx="5" cy="18" r="3" fill="#44dd44"/>
  </g>
  <g transform="translate(385,177)"><rect width="10" height="22" rx="2" fill="#222"/>
    <circle cx="5" cy="4"  r="3" fill="#44dd44"/>
    <circle cx="5" cy="11" r="3" fill="#ffaa00"/>
    <circle cx="5" cy="18" r="3" fill="#ff3333"/>
  </g>
  <g transform="translate(585,177)"><rect width="10" height="22" rx="2" fill="#222"/>
    <circle cx="5" cy="4"  r="3" fill="#ff3333"/>
    <circle cx="5" cy="11" r="3" fill="#ffaa00"/>
    <circle cx="5" cy="18" r="3" fill="#44dd44"/>
  </g>
  <g transform="translate(785,177)"><rect width="10" height="22" rx="2" fill="#222"/>
    <circle cx="5" cy="4"  r="3" fill="#44dd44"/>
    <circle cx="5" cy="11" r="3" fill="#ffaa00"/>
    <circle cx="5" cy="18" r="3" fill="#ff3333"/>
  </g>
  <g transform="translate(190,392)"><rect width="10" height="22" rx="2" fill="#222"/>
    <circle cx="5" cy="4"  r="3" fill="#ff3333"/>
    <circle cx="5" cy="11" r="3" fill="#ffaa00"/>
    <circle cx="5" cy="18" r="3" fill="#44dd44"/>
  </g>
  <g transform="translate(785,392)"><rect width="10" height="22" rx="2" fill="#222"/>
    <circle cx="5" cy="4"  r="3" fill="#44dd44"/>
    <circle cx="5" cy="11" r="3" fill="#ffaa00"/>
    <circle cx="5" cy="18" r="3" fill="#ff3333"/>
  </g>

  <!-- ══════════════════════════════════════════
       TOP-LEFT — Trees / park
       ══════════════════════════════════════════ -->
  <g transform="translate(10,10)">
    <rect x="35"  y="120" width="12" height="28" rx="3" fill="#7a5230"/>
    <ellipse cx="41"  cy="105" rx="28" ry="26" fill="#4a9a3a"/>
    <ellipse cx="41"  cy="96"  rx="20" ry="19" fill="#5ab04a"/>
    <rect x="110" y="124" width="12" height="24" rx="3" fill="#7a5230"/>
    <ellipse cx="116" cy="110" rx="25" ry="23" fill="#4a9a3a"/>
    <ellipse cx="116" cy="102" rx="18" ry="17" fill="#5ab04a"/>
  </g>

  <!-- ══════════════════════════════════════════
       TOP-CENTER — 高鐵站 (HSR)
       ══════════════════════════════════════════ -->
  <g transform="translate(215,12)">
    <!-- Station building -->
    <rect x="30" y="50" width="130" height="95" rx="3" fill="#e8e4dc" stroke="#ccc" stroke-width="1.5"/>
    <rect x="18" y="36" width="155" height="20" rx="3" fill="#d0ccc0"/>
    <!-- Windows -->
    <rect x="38"  y="60" width="22" height="18" rx="2" fill="#a0c8e8"/>
    <rect x="68"  y="60" width="22" height="18" rx="2" fill="#a0c8e8"/>
    <rect x="98"  y="60" width="22" height="18" rx="2" fill="#a0c8e8"/>
    <rect x="128" y="60" width="22" height="18" rx="2" fill="#a0c8e8"/>
    <!-- Red banner -->
    <rect x="30" y="82" width="130" height="26" fill="#e05020"/>
    <text x="95" y="99" font-family="Noto Serif SC,serif" font-size="13" font-weight="700" fill="white" text-anchor="middle">台灣高鐵</text>
    <!-- Doors -->
    <rect x="55"  y="108" width="30" height="37" rx="2" fill="#a8d0f0" opacity="0.8"/>
    <rect x="105" y="108" width="30" height="37" rx="2" fill="#a8d0f0" opacity="0.8"/>
    <!-- HSR Bullet train -->
    <rect x="5"  y="145" width="185" height="32" rx="7" fill="#f5f5f5" stroke="#ddd" stroke-width="1"/>
    <rect x="5"  y="157" width="185" height="10" fill="#f07020"/>
    <path d="M 5 145 Q -18 158 5 177" fill="#f5f5f5" stroke="#ddd" stroke-width="1"/>
    <path d="M 5 157 Q -6 162 5 167" fill="#f07020"/>
    <rect x="18"  y="148" width="16" height="10" rx="2" fill="#a8d8f0"/>
    <rect x="40"  y="148" width="16" height="10" rx="2" fill="#a8d8f0"/>
    <rect x="62"  y="148" width="16" height="10" rx="2" fill="#a8d8f0"/>
    <rect x="84"  y="148" width="16" height="10" rx="2" fill="#a8d8f0"/>
    <rect x="106" y="148" width="16" height="10" rx="2" fill="#a8d8f0"/>
    <rect x="128" y="148" width="16" height="10" rx="2" fill="#a8d8f0"/>
    <rect x="150" y="148" width="16" height="10" rx="2" fill="#a8d8f0"/>
    <circle cx="35"  cy="179" r="6" fill="#555"/><circle cx="35"  cy="179" r="2.5" fill="#888"/>
    <circle cx="90"  cy="179" r="6" fill="#555"/><circle cx="90"  cy="179" r="2.5" fill="#888"/>
    <circle cx="155" cy="179" r="6" fill="#555"/><circle cx="155" cy="179" r="2.5" fill="#888"/>
    <rect x="-10" y="184" width="210" height="3" rx="1" fill="#aaa"/>
    <!-- Label -->
    <rect x="30" y="0" width="130" height="26" rx="11" fill="white" stroke="#ccc" stroke-width="1.5"/>
    <text x="95" y="17" font-family="Noto Serif SC,serif" font-size="14" font-weight="700" fill="#333" text-anchor="middle">高鐵站</text>
  </g>

  <!-- ══════════════════════════════════════════
       TOP-RIGHT — 藥局 GOAL 2 ⭐
       ══════════════════════════════════════════ -->
  <g id="goal-zone" transform="translate(803,12)">
    <rect x="3" y="34" width="185" height="148" rx="4" fill="#f0faf0" stroke="#44aa44" stroke-width="3"/>
    <rect x="3" y="34" width="185" height="20" rx="4" fill="#33aa33"/>
    <!-- Green cross -->
    <rect x="72" y="58" width="48" height="48" rx="4" fill="#22aa22"/>
    <rect x="82" y="66" width="28" height="8"  rx="2" fill="white"/>
    <rect x="92" y="59" width="8"  height="28" rx="2" fill="white"/>
    <!-- Windows -->
    <rect x="10"  y="62" width="50" height="32" rx="2" fill="#b8e8f8" stroke="#80c0d8" stroke-width="1"/>
    <rect x="131" y="62" width="50" height="32" rx="2" fill="#b8e8f8" stroke="#80c0d8" stroke-width="1"/>
    <!-- Door -->
    <rect x="72" y="112" width="47" height="42" rx="2" fill="#88dd88" opacity="0.85"/>
    <!-- Goal label -->
    <rect x="0" y="0" width="191" height="30" rx="13" fill="#ffd700" stroke="#e09000" stroke-width="2.5"/>
    <text x="95" y="15" font-family="Noto Serif SC,serif" font-size="12" font-weight="700" fill="#333" text-anchor="middle">藥局　終點 ⭐</text>
    <text x="95" y="27" font-family="Noto Serif SC,serif" font-size="8"  fill="#666" text-anchor="middle">Yàojú　Zhōngdiǎn　目標②</text>
  </g>

  <!-- ══════════════════════════════════════════
       MIDDLE-LEFT — Metro Taipei
       ══════════════════════════════════════════ -->
  <g transform="translate(12,228)">
    <rect x="0" y="8" width="180" height="175" rx="8" fill="white" stroke="#ddd" stroke-width="1.5"/>
    <!-- Metro wave logo (S-curve like reference) -->
    <path d="M 35 80 C 35 52, 75 52, 75 80 C 75 108, 115 108, 115 80 C 115 52, 145 52, 155 68"
          stroke="#00963a" stroke-width="16" fill="none" stroke-linecap="round"/>
    <text x="90" y="138" font-family="Arial,Helvetica,sans-serif" font-size="13" font-weight="700" fill="#333" text-anchor="middle">Metro Taipei</text>
    <!-- MRT car -->
    <rect x="22" y="150" width="136" height="20" rx="5" fill="#00963a"/>
    <rect x="28" y="154" width="16" height="11" rx="2" fill="#ccffee"/>
    <rect x="50" y="154" width="16" height="11" rx="2" fill="#ccffee"/>
    <rect x="72" y="154" width="16" height="11" rx="2" fill="#ccffee"/>
    <rect x="94" y="154" width="16" height="11" rx="2" fill="#ccffee"/>
    <circle cx="45"  cy="172" r="5" fill="#333"/>
    <circle cx="115" cy="172" r="5" fill="#333"/>
  </g>

  <!-- ══════════════════════════════════════════
       MIDDLE-CENTER — 房東 GOAL 1
       *** KEPT EXACTLY FROM PREVIOUS VERSION ***
       ══════════════════════════════════════════ -->
  <g id="landlord-zone" transform="translate(393,228)">
    <!-- Apartment building (3 floors) -->
    <rect x="20" y="30" width="100" height="155" rx="3" fill="#e8d8b8" stroke="#c0a870" stroke-width="2"/>
    <!-- Roof -->
    <rect x="18" y="22" width="104" height="14" rx="2" fill="#c8a040"/>
    <!-- Floor lines -->
    <line x1="18" x2="122" y1="80"  y2="80"  stroke="#c0a870" stroke-width="1.5"/>
    <line x1="18" x2="122" y1="130" y2="130" stroke="#c0a870" stroke-width="1.5"/>
    <!-- Windows row 1 -->
    <rect x="28" y="36" width="25" height="22" rx="2" fill="#a0c8e8" stroke="#80a8c0" stroke-width="1"/>
    <rect x="64" y="36" width="25" height="22" rx="2" fill="#a0c8e8" stroke="#80a8c0" stroke-width="1"/>
    <rect x="100" y="36" width="18" height="22" rx="2" fill="#a0c8e8" stroke="#80a8c0" stroke-width="1"/>
    <!-- Windows row 2 -->
    <rect x="28" y="88" width="25" height="22" rx="2" fill="#a0c8e8" stroke="#80a8c0" stroke-width="1"/>
    <rect x="64" y="88" width="25" height="22" rx="2" fill="#a0c8e8" stroke="#80a8c0" stroke-width="1"/>
    <rect x="100" y="88" width="18" height="22" rx="2" fill="#a0c8e8" stroke="#80a8c0" stroke-width="1"/>
    <!-- Windows row 3 -->
    <rect x="28" y="138" width="25" height="22" rx="2" fill="#a0c8e8" stroke="#80a8c0" stroke-width="1"/>
    <rect x="64" y="138" width="25" height="22" rx="2" fill="#a0c8e8" stroke="#80a8c0" stroke-width="1"/>
    <rect x="100" y="138" width="18" height="22" rx="2" fill="#a0c8e8" stroke="#80a8c0" stroke-width="1"/>
    <!-- Door -->
    <rect x="50" y="162" width="40" height="23" rx="2" fill="#8b6040"/>
    <!-- 房東 old man character (to the right of building) -->
    <g transform="translate(155,40)">
      <ellipse cx="50" cy="130" rx="30" ry="42" fill="#8b6a40"/>
      <circle cx="50" cy="72" r="38" fill="#d4a870" stroke="#b88040" stroke-width="2"/>
      <ellipse cx="50" cy="56" rx="22" ry="14" fill="#e0b880" opacity="0.7"/>
      <path d="M 36 70 Q 40 66 44 70" stroke="#333" stroke-width="2.5" fill="none" stroke-linecap="round"/>
      <path d="M 56 70 Q 60 66 64 70" stroke="#333" stroke-width="2.5" fill="none" stroke-linecap="round"/>
      <path d="M 32 63 Q 40 58 47 63" stroke="white" stroke-width="3.5" fill="none" stroke-linecap="round"/>
      <path d="M 53 63 Q 60 58 68 63" stroke="white" stroke-width="3.5" fill="none" stroke-linecap="round"/>
      <ellipse cx="50" cy="80" rx="6" ry="5" fill="#c09060"/>
      <path d="M 32 90 Q 50 82 68 90" stroke="white" stroke-width="4"   fill="none" stroke-linecap="round"/>
      <path d="M 32 90 Q 38 100 45 94" stroke="white" stroke-width="3"   fill="none" stroke-linecap="round"/>
      <path d="M 68 90 Q 62 100 55 94" stroke="white" stroke-width="3"   fill="none" stroke-linecap="round"/>
      <path d="M 27 76 Q 23 83 28 89" stroke="#b88040" stroke-width="1.5" fill="none"/>
      <path d="M 73 76 Q 77 83 72 89" stroke="#b88040" stroke-width="1.5" fill="none"/>
      <line x1="72" y1="105" x2="100" y2="168" stroke="#7a5230" stroke-width="5" stroke-linecap="round"/>
      <path d="M 60 102 Q 72 94 84 102" stroke="#7a5230" stroke-width="4" fill="none" stroke-linecap="round"/>
    </g>
    <!-- 房東 speech bubble -->
    <rect x="148" y="0" width="140" height="36" rx="14" fill="#ffd700" stroke="#e09000" stroke-width="2"/>
    <polygon points="172,36 156,50 188,36" fill="#ffd700"/>
    <text x="218" y="16" font-family="Noto Serif SC,serif" font-size="15" font-weight="700" fill="#333" text-anchor="middle">房東</text>
    <text x="218" y="30" font-family="Noto Serif SC,serif" font-size="9"  fill="#666" text-anchor="middle">目標①　Fángdōng</text>
  </g>

  <!-- ══════════════════════════════════════════
       MIDDLE-RIGHT — 學校
       ══════════════════════════════════════════ -->
  <g transform="translate(793,228)">
    <rect x="3" y="8" width="196" height="175" rx="6" fill="#a8d8f8"/>
    <ellipse cx="75"  cy="135" rx="75" ry="55" fill="#5a9a4a"/>
    <ellipse cx="155" cy="140" rx="65" ry="50" fill="#4a8a3a"/>
    <rect x="120" y="75" width="46" height="55" rx="2" fill="#f0e8d0" stroke="#ccc" stroke-width="1"/>
    <rect x="128" y="83" width="10" height="9" rx="1" fill="#a0c0e0"/>
    <rect x="146" y="83" width="10" height="9" rx="1" fill="#a0c0e0"/>
    <rect x="128" y="98" width="10" height="9" rx="1" fill="#a0c0e0"/>
    <rect x="146" y="98" width="10" height="9" rx="1" fill="#a0c0e0"/>
    <!-- Gate -->
    <rect x="28"  y="95" width="26" height="75" fill="#f0ece0" stroke="#ccc" stroke-width="1"/>
    <rect x="148" y="95" width="26" height="75" fill="#f0ece0" stroke="#ccc" stroke-width="1"/>
    <rect x="24"  y="84" width="155" height="16" rx="3" fill="#f0ece0" stroke="#ccc" stroke-width="1"/>
    <text x="101" y="97" font-family="Noto Serif SC,serif" font-size="10" font-weight="700" fill="#555" text-anchor="middle">學　大　東</text>
    <rect x="54"  y="148" width="94" height="35" fill="#c8c8c8"/>
    <line x1="101" y1="148" x2="101" y2="183" stroke="white" stroke-width="2" stroke-dasharray="6,5" opacity="0.5"/>
    <rect x="4"   y="142" width="7" height="30" fill="#7a5230"/>
    <ellipse cx="7"   cy="136" rx="11" ry="13" fill="#3a8a3a"/>
    <rect x="191" y="142" width="7" height="30" fill="#7a5230"/>
    <ellipse cx="195" cy="136" rx="11" ry="13" fill="#3a8a3a"/>
    <!-- Label -->
    <rect x="30" y="0" width="140" height="24" rx="11" fill="white" stroke="#ccc" stroke-width="1.5"/>
    <text x="100" y="16" font-family="Noto Serif SC,serif" font-size="13" font-weight="700" fill="#333" text-anchor="middle">學校</text>
  </g>

  <!-- ══════════════════════════════════════════
       BOTTOM-LEFT — 起點 (yellow block, NO face)
       ══════════════════════════════════════════ -->
  <g id="start-point" transform="translate(12,442)">
    <rect x="0" y="0" width="130" height="44" rx="8" fill="#1a1a2a" stroke="#ffd700" stroke-width="2.5"/>
    <text x="65" y="22" font-family="Noto Serif SC,serif" font-size="17" font-weight="700" fill="#ffd700" text-anchor="middle">起點</text>
    <text x="65" y="38" font-family="Noto Serif SC,serif" font-size="10" fill="#ffcc44" text-anchor="middle">Qǐdiǎn</text>
    <!-- Yellow ? block -->
    <rect x="28" y="54" width="65" height="65" rx="5" fill="#e6a817" stroke="#c8830a" stroke-width="3"/>
    <text x="60" y="98" font-family="serif" font-size="34" font-weight="900" fill="#c8830a" text-anchor="middle">?</text>
  </g>

  <!-- ══════════════════════════════════════════
       BOTTOM-CENTER-LEFT — 超市 PX Mart
       ══════════════════════════════════════════ -->
  <g transform="translate(218,443)">
    <rect x="3"  y="46" width="163" height="122" rx="3" fill="#f5f0e8" stroke="#ccc" stroke-width="1.5"/>
    <!-- Banner -->
    <rect x="3"  y="46" width="163" height="36" rx="3" fill="#1a3a8a"/>
    <circle cx="36" cy="64" r="12" fill="#e03030"/>
    <text x="36" y="68" font-family="Arial,sans-serif" font-size="11" font-weight="900" fill="white" text-anchor="middle">PX</text>
    <circle cx="62" cy="64" r="12" fill="#e09000"/>
    <text x="62" y="68" font-family="Arial,sans-serif" font-size="10" font-weight="900" fill="white" text-anchor="middle">全</text>
    <text x="122" y="62" font-family="Arial,sans-serif" font-size="12" font-weight="700" fill="white" text-anchor="middle">Mart</text>
    <text x="100" y="76" font-family="Noto Serif SC,serif" font-size="8" fill="#aac0ff" text-anchor="middle">全聯福利中心</text>
    <!-- Window shelves -->
    <rect x="12"  y="88" width="140" height="52" rx="2" fill="#e8f0f8" stroke="#bcd" stroke-width="1"/>
    <rect x="18"  y="94" width="32" height="38" fill="#c0d8f0"/>
    <rect x="56"  y="94" width="32" height="38" fill="#f0c0a0"/>
    <rect x="94"  y="94" width="32" height="38" fill="#c0f0c0"/>
    <rect x="132" y="94" width="14" height="38" fill="#f0e0b0"/>
    <!-- Door -->
    <rect x="52"  y="142" width="60" height="26" rx="2" fill="#a8d0f0" opacity="0.85"/>
    <!-- Trees -->
    <rect x="2"  y="156" width="6" height="18" fill="#7a5230"/>
    <ellipse cx="5"   cy="150" rx="10" ry="11" fill="#3a8a3a"/>
    <rect x="158" y="156" width="6" height="18" fill="#7a5230"/>
    <ellipse cx="161" cy="150" rx="10" ry="11" fill="#3a8a3a"/>
    <!-- Label -->
    <rect x="10" y="0" width="148" height="24" rx="11" fill="white" stroke="#ccc" stroke-width="1.5"/>
    <text x="84" y="16" font-family="Noto Serif SC,serif" font-size="13" font-weight="700" fill="#333" text-anchor="middle">超市</text>
  </g>

  <!-- ══════════════════════════════════════════
       BOTTOM-CENTER-RIGHT — 郵局 POST
       ══════════════════════════════════════════ -->
  <g transform="translate(603,443)">
    <rect x="3"  y="46" width="181" height="122" rx="3" fill="#f8f4ee" stroke="#ccc" stroke-width="1.5"/>
    <!-- Banner -->
    <rect x="3"  y="46" width="181" height="34" rx="3" fill="#228833"/>
    <circle cx="35" cy="63" r="13" fill="#cc3333" stroke="white" stroke-width="2"/>
    <path d="M 27 66 Q 35 55 43 66" stroke="white" stroke-width="2" fill="none"/>
    <path d="M 29 62 Q 35 68 41 62" stroke="white" stroke-width="1.5" fill="none"/>
    <text x="108" y="62" font-family="Noto Serif SC,serif" font-size="13" font-weight="700" fill="white" text-anchor="middle">郵局</text>
    <text x="158" y="62" font-family="Arial,sans-serif" font-size="12" font-weight="700" fill="white" text-anchor="middle">POST</text>
    <rect x="3"  y="78" width="181" height="9" fill="#55aa55"/>
    <!-- Windows -->
    <rect x="12"  y="92" width="48" height="36" rx="2" fill="#c0d8c8" stroke="#aaa" stroke-width="1"/>
    <rect x="70"  y="92" width="48" height="36" rx="2" fill="#c0d8c8" stroke="#aaa" stroke-width="1"/>
    <rect x="128" y="92" width="48" height="36" rx="2" fill="#c0d8c8" stroke="#aaa" stroke-width="1"/>
    <!-- Door -->
    <rect x="72" y="130" width="52" height="38" rx="2" fill="#90c090" opacity="0.85"/>
    <!-- Label -->
    <rect x="20" y="0" width="148" height="24" rx="11" fill="white" stroke="#ccc" stroke-width="1.5"/>
    <text x="94" y="16" font-family="Noto Serif SC,serif" font-size="13" font-weight="700" fill="#333" text-anchor="middle">郵局</text>
  </g>

  <!-- ══════════════════════════════════════════
       BOTTOM-RIGHT — 臺鐵公司
       ══════════════════════════════════════════ -->
  <g transform="translate(803,443)">
    <rect x="3" y="28" width="185" height="140" rx="8" fill="white" stroke="#ddd" stroke-width="1.5"/>
    <!-- Taiwan Railway logo: concentric circles with spokes -->
    <circle cx="95" cy="100" r="50" fill="white" stroke="#1a3a8a" stroke-width="4"/>
    <circle cx="95" cy="100" r="36" fill="white" stroke="#1a3a8a" stroke-width="3"/>
    <line x1="95" y1="53"  x2="95" y2="64"  stroke="#1a3a8a" stroke-width="3"/>
    <line x1="95" y1="136" x2="95" y2="147" stroke="#1a3a8a" stroke-width="3"/>
    <line x1="48" y1="100" x2="59" y2="100" stroke="#1a3a8a" stroke-width="3"/>
    <line x1="131" y1="100" x2="142" y2="100" stroke="#1a3a8a" stroke-width="3"/>
    <circle cx="95" cy="100" r="10" fill="#1a3a8a"/>
    <text x="95" y="160" font-family="Noto Serif SC,serif" font-size="13" font-weight="700" fill="#1a3a8a" text-anchor="middle">臺鐵公司</text>
    <text x="95" y="174" font-family="Arial,sans-serif" font-size="10" fill="#555" text-anchor="middle">Taiwan Railway</text>
    <!-- Label -->
    <rect x="18" y="0" width="155" height="24" rx="11" fill="white" stroke="#ccc" stroke-width="1.5"/>
    <text x="95" y="16" font-family="Noto Serif SC,serif" font-size="13" font-weight="700" fill="#333" text-anchor="middle">火車站</text>
  </g>

  <!--
    EDIT NOTES (config.js):
      characterStartX: 40,  characterStartY: 462
      goal1Zone: { x: 390, y: 225, width: 390, height: 185 }  ← 房東
      goal2Zone: { x: 800, y: 10,  width: 190, height: 185 }  ← 藥局
      Map viewBox: 1000 × 580
  -->
</svg>
